<?xml version="1.0" encoding="utf-8"?>
<!-- Generator: Adobe Illustrator 21.1.0, SVG Export Plug-In . SVG Version: 6.00 Build 0)  -->
<svg version="1.1" id="Layer_1" xmlns="http://www.w3.org/2000/svg" xmlns:xlink="http://www.w3.org/1999/xlink" x="0px" y="0px"
	 viewBox="0 0 360 360" style="enable-background:new 0 0 360 360;" xml:space="preserve">
<style type="text/css">
	.st0{fill:#4DCEF3;}
	.st1{fill:#FFFFFF;}
</style>
<g id="cloudevents-blue-icon">
	<rect x="-1" y="-1" class="st0" width="362" height="362"/>
	<g id="icon" transform="translate(48.000000, 69.000000)">
		<path id="Fill-1" class="st1" d="M191.5608521,163.815155c17.2831268,0.0007782,36.0611267-11.3808136,40.282074-28.2714539
			c4.8467102-19.3955612-6.5122223-39.3833084-25.5685272-44.9662399
			c-3.6460571-1.0681152-7.3900452-1.4156265-11.1764374-1.4094238c-5.5657349,0.0090485-11.1312103,0.0023193-16.8472748,0.0023193
			c0.3888092-14.2174988-4.6282806-25.9528084-15.8735809-34.690731
			c-7.1700897-5.5715599-15.4251556-8.1785431-24.4596405-7.8878746
			c-10.2351151,0.328907-19.0735245,4.1964951-26.3338089,11.4795227
			c-7.2410126,7.2639008-11.0207214,16.1498718-11.705574,26.1747513
			c-5.2684097-1.8191986-10.4245071-3.5999069-15.6620789-5.4082642
			c1.3951569-17.3022232,15.3763123-41.2012253,42.4772186-47.4745255
			c30.9132538-7.1561623,59.5619659,13.0227833,66.2859192,41.4071426c2.5695648,0,5.2427063-0.2529449,7.8546753,0.0400543
			c20.9852295,2.353775,35.8689117,13.3829575,44.1645813,32.772316
			c10.2507782,23.9579163,1.5424042,52.1745911-19.8632507,66.2091675
			c-8.897522,5.8335571-22.9459991,8.6880493-33.5331726,8.7120819"/>
		<path id="Fill-3" class="st1" d="M179.1409149,180.4058838c0,0-25.3927765,0.1884766-46.2898865,0.0429688
			c-21.9785004-0.1530304-39.7105942-14.2580109-45.1871719-33.4328766
			c-4.7558212-16.6500244-0.9391174-31.5667572,10.487114-44.5366058
			c7.2699051-8.2518616,16.2884979-13.5410385,27.1990662-15.4221725
			c18.3949738-3.1713791,36.9098663,5.043457,46.8182373,20.8203659c6.3964996,10.1845169,8.7937469,21.258728,7.0777893,33.1900024
			c-0.1074982,0.7472687-0.2814484,1.1429138-1.1668243,1.1413574c-14.8417816-0.0245972-29.6833191-0.0181122-44.5248413-0.0222626
			c-0.2089996,0-0.4177551-0.0450592-0.7378998-0.0823517c-0.0254364-0.4461365-0.0693207-0.8617096-0.0698395-1.2775574
			c-0.0046692-4.5740051-0.0054474-9.1482697-0.0018158-13.72229c0.0015564-1.8565369,0.2043304-2.0502167,2.0958099-2.0502167
			c8.351059-0.0005188,16.7021179-0.0002518,25.0531616-0.0002518c0.5151215,0,1.0302429,0,1.7562103,0
			c-0.2360229-0.734848-0.3796082-1.3459244-0.6218414-1.9150543c-4.3933716-10.331337-12.1236115-16.7538528-23.1850586-18.5956345
			c-11.0899811-1.8464279-20.7737656,1.4357758-28.0587387,10.0957108
			c-11.2034531,13.3175812-7.6959839,34.5276413,7.0087051,44.1119614
			c5.0647964,3.3011169,10.6016159,4.9406586,16.6618652,4.9347076c20.6831665-0.0209808,45.6444092-0.0046692,45.6444092-0.0046692
			L179.1409149,180.4058838"/>
		<path id="Fill-4" class="st1" d="M78.2713776,160.0250397c3.4871292,4.411026,6.881073,8.704422,10.2537155,12.9707031
			c-14.1669769,8.9156036-38.0490799,9.2622223-54.7012482-7.6113129
			c-16.8092709-17.03302-17.8561287-44.3759079-2.3026733-62.7729416
			c15.7729378-18.6565552,40.8379517-20.0283279,57.038826-10.1925201
			c-3.3710938,4.2551498-6.7609253,8.5335693-10.2878494,12.9854355c-8.0098114-3.4729843-16.3982811-3.591629-24.6948433,0.3409348
			c-5.5775032,2.6437683-9.8855858,6.7389221-12.9388733,12.1344986
			c-6.3222198,11.172699-4.9072418,25.0217133,3.5338478,34.6690826
			C52.1964722,161.7204285,65.6256638,165.6550598,78.2713776,160.0250397"/>
	</g>
</g>
</svg>
