<?xml version="1.0" encoding="utf-8"?>
<!-- Generator: Adobe Illustrator 21.1.0, SVG Export Plug-In . SVG Version: 6.00 Build 0)  -->
<svg version="1.1" id="Layer_1" xmlns="http://www.w3.org/2000/svg" xmlns:xlink="http://www.w3.org/1999/xlink" x="0px" y="0px"
	 viewBox="0 0 360 360" style="enable-background:new 0 0 360 360;" xml:space="preserve">
<style type="text/css">
	.st0{fill:#4DCEF3;}
</style>
<g id="cloudevents-transparent-icon">
	<g id="icon" transform="translate(48.000000, 69.000000)">
		<path id="Fill-1" class="st0" d="M219.2458801,198.3412933c26.5723877,0.0011902,55.4431152-17.4977264,61.9327393-43.4666901
			c7.4516907-29.8202133-10.0123901-60.5509109-39.3110046-69.1345291c-5.6057434-1.6422043-11.36203-2.1764908-17.1835175-2.166954
			c-8.5571899,0.0139008-17.1139679,0.0035629-25.902298,0.0035629c0.5977936-21.8590698-7.11586-39.9018326-24.4052582-53.3361816
			c-11.0238342-8.5661411-23.7157898-12.5743198-37.6061096-12.1274223
			c-15.7362518,0.5056896-29.3250961,6.4520149-40.4876099,17.6494961
			C85.1499405,46.9306526,79.3387299,60.5926247,78.2857742,76.0056381
			c-8.1000519-2.7969818-16.0274353-5.5347824-24.0800781-8.3150787
			c2.1450272-26.6017609,23.6407242-63.3459167,65.3077316-72.9909668
			c47.5283966-11.0024319,91.5751038,20.0222244,101.9130249,63.6625137c3.9506531,0,8.0605469-0.3888969,12.0764008,0.0615768
			c32.264267,3.6188774,55.1475983,20.575985,67.9019928,50.3866615
			c15.7603149,36.8347244,2.3713989,80.2172012-30.5392761,101.7950363
			C257.1858215,219.5743256,235.5866241,223.9630585,219.3090973,224"/>
		<path id="Fill-3" class="st0" d="M200.1505127,223.8491364c0,0-39.040802,0.2897949-71.1696014,0.0660706
			c-33.7914276-0.2352753-61.0541077-21.9213562-69.4742203-51.4022522
			c-7.3119583-25.5990295-1.4438667-48.5331497,16.1236877-68.4739761
			c11.1773148-12.6870499,25.0431824-20.8190308,41.8179321-23.7112274
			c28.2818222-4.8759308,56.7480545,7.7541885,71.9819412,32.0108109
			c9.8344574,15.6584625,13.5201569,32.6847992,10.8819122,51.0288544
			c-0.1652527,1.1488953-0.4327087,1.7572021-1.7939606,1.7548065c-22.8188782-0.0378113-45.6373901-0.0278625-68.4558868-0.0342255
			c-0.3213348,0-0.6422882-0.0692749-1.134491-0.1266022c-0.0391235-0.6859283-0.1065826-1.3248749-0.1073914-1.9642181
			c-0.0071869-7.0324402-0.0083618-14.0652618-0.0027771-21.0977173c0.0023956-2.8543701,0.3141479-3.1521454,3.2222443-3.1521454
			c12.8395538-0.0008087,25.6791077-0.0003967,38.5186462-0.0003967c0.7919922,0,1.5839844,0,2.700119,0
			c-0.3628693-1.1298065-0.5836182-2.0693207-0.9560547-2.9443359
			c-6.7546997-15.8841934-18.6397705-25.758667-35.6464691-28.5903549
			c-17.0505905-2.8388443-31.9391861,2.2074661-43.1396637,15.5219193
			c-17.2250366,20.4754639-11.8323822,53.0854187,10.7757339,67.8210907
			c7.7870026,5.0753784,16.2997284,7.5961456,25.6172256,7.5869904c31.7998657-0.0322418,70.1771851-0.0071564,70.1771851-0.0071564
			L200.1505127,223.8491364"/>
		<path id="Fill-4" class="st0" d="M45.0659866,192.5140839c5.3613739,6.7818451,10.579483,13.382843,15.7648354,19.9421387
			c-21.7813873,13.7075348-58.4995575,14.2404633-84.1018753-11.7021942
			c-25.8438587-26.1878815-27.4533749-68.2269135-3.540308-96.5119247
			c24.2505226-28.6840134,62.7873917-30.7930832,87.6958542-15.6707611
			c-5.1829834,6.5421982-10.3947716,13.120163-15.8173294,19.964798
			c-12.3148994-5.3396301-25.2119694-5.5220413-37.9677353,0.5241776
			c-8.5752811,4.064743-15.1988564,10.3609314-19.8932171,18.6565094
			c-9.7202587,17.1777496-7.5447655,38.4702911,5.4332113,53.3029022
			C4.9764276,195.1207123,25.6234932,201.170105,45.0659866,192.5140839"/>
	</g>
</g>
</svg>
