<?xml version="1.0" encoding="utf-8"?>
<!-- Generator: Adobe Illustrator 21.1.0, SVG Export Plug-In . SVG Version: 6.00 Build 0)  -->
<svg version="1.1" id="Layer_1" xmlns="http://www.w3.org/2000/svg" xmlns:xlink="http://www.w3.org/1999/xlink" x="0px" y="0px"
	 viewBox="0 0 500 500" style="enable-background:new 0 0 500 500;" xml:space="preserve">
<style type="text/css">
	.st0{fill:#4DCEF3;}
	.st1{fill:#FFFFFF;}
</style>
<g id="cloudevents-blue">
	<rect class="st0" width="500" height="500"/>
	<g id="text" transform="translate(118.000000, 284.000000)">
		<path id="cloudevents" class="st1" d="M17.7099991,29.9327583l2.4169025,3.5379295
			c-1.8591557,1.5827599-4.5549297,2.4672432-7.483099,2.4672432c-6.7859154,0-12.0380278-4.9344826-12.0380278-12.3362064
			c0-6.8896561,5.2985916-12.3362074,12.2239437-12.3362074c2.6957741,0,5.0661974,0.791379,7.0647879,2.2344828
			l-2.3239422,3.770689c-1.3478889-1.0241375-3.0211277-1.6758614-4.7408457-1.6758614
			c-4.0901413,0-7.3436623,3.5844822-7.3436623,8.006897c0,4.7948265,3.4394369,8.006897,7.3436623,8.006897
			C14.4099998,31.6086216,16.4085922,30.9568958,17.7099991,29.9327583z M30.2871838,0.4655173v34.9137917h-4.7873249V0.4655173
			H30.2871838z M48.488308,11.2655172c6.925354,0,12.0845108,5.4465513,12.0845108,12.3362074
			S55.413662,35.9379311,48.488308,35.9379311c-6.9718285,0-12.084507-5.4465523-12.084507-12.3362064
			S41.5164795,11.2655172,48.488308,11.2655172z M55.6925354,23.6017246c0-4.4224148-3.0211258-8.006897-7.2042274-8.006897
			s-7.2042236,3.5844822-7.2042236,8.006897c0,4.3758621,3.0211258,8.006897,7.2042236,8.006897
			S55.6925354,27.9775867,55.6925354,23.6017246z M87.5584488,35.3793106h-4.554924l-0.1394424-3.7241383
			c-1.7661972,2.7465534-4.6014099,4.2827587-7.6225357,4.2827587c-3.1140823,0-5.2985916-1.1172409-6.692955-2.9793091
			c-1.6267624-2.2344837-2.0915527-5.3534489-2.0915527-8.8913803v-12.243104h4.7873306v11.8241377
			c0,2.1413803,0.0929565,4.5155182,1.1154861,6.1448288c0.6971893,1.1172409,1.9521179,1.8155174,3.8577499,1.8155174
			c2.5098572,0,5.019722-1.722414,6.5535202-4.1896553V11.8241377h4.787323V35.3793106z M117.3792953,0.4655173v34.9137917
			h-4.5549316l-0.1394348-3.1189651c-1.6732407,2.4672394-4.7408447,3.6775856-7.4831009,3.6775856
			c-6.6464767,0-11.5267563-5.493103-11.5267563-12.3827591c0-6.3310337,4.6478882-12.2896547,11.6197205-12.2896547
			c2.649292,0,5.4380264,1.1172409,7.2971802,3.0724134V0.4655173H117.3792953z M112.5919724,18.993103
			c-1.5802841-2.2344818-4.1830978-3.3982754-6.5070419-3.3982754c-5.1126785,0-7.5295792,4.1896553-7.5295792,8.0534477
			c0,4.1896553,2.8352127,7.9603462,7.4366226,7.9603462c2.4169006,0,5.3915482-1.396553,6.5999985-4.1896553V18.993103z
			 M128.3297119,24.8120689c0.3253632,3.8637924,2.9281769,7.0758629,7.1112671,7.0758629
			c3.11409,0,5.3915558-1.1637936,6.8323975-3.7241383l3.3464813,2.1879311
			c-2.4169006,3.8172398-5.5774689,5.5862064-10.4112701,5.5862064c-7.3901367,0-11.7126694-5.3534489-11.7126694-12.2896557
			c0-7.0293102,5.1126785-12.3827581,11.7126694-12.3827581c6.3211365,0,10.9225464,4.6551723,10.9225464,10.9396544
			c0,0.8379326-0.0929718,1.9086208-0.2324066,2.6068974H128.3297119z M141.1578827,21.1344833
			c-0.1859131-3.2120705-2.5563354-5.8655176-5.8563385-5.8655176c-3.625351,0-5.8563385,2.5603437-6.6929474,5.8655176H141.1578827
			z M166.0054932,11.8241377h5.1591492l-9.2957764,23.555172h-4.0901337l-8.9239502-23.555172h5.2985992l5.9028168,17.4568977
			h0.0929565L166.0054932,11.8241377z M178.6291504,24.8120689c0.3253632,3.8637924,2.9281769,7.0758629,7.1112671,7.0758629
			c3.11409,0,5.3915558-1.1637936,6.8323975-3.7241383l3.3464813,2.1879311
			c-2.4169006,3.8172398-5.5774689,5.5862064-10.4112701,5.5862064c-7.3901367,0-11.712677-5.3534489-11.712677-12.2896557
			c0-7.0293102,5.1126862-12.3827581,11.712677-12.3827581c6.3211365,0,10.9225311,4.6551723,10.9225311,10.9396544
			c0,0.8379326-0.0929565,1.9086208-0.2323914,2.6068974H178.6291504z M191.4573212,21.1344833
			c-0.1859131-3.2120705-2.5563354-5.8655176-5.8563385-5.8655176c-3.625351,0-5.8563385,2.5603437-6.6929474,5.8655176H191.4573212
			z M202.5471802,11.8241377h4.5549316l0.1394348,3.7241383c1.7662048-2.7465515,4.6014099-4.2827587,7.6225433-4.2827587
			c3.1140747,0,5.298584,1.1172409,6.6929474,2.97931c1.62677,2.2344837,2.0915527,5.3534489,2.0915527,8.8913803v12.243103
			h-4.787323V23.555172c0-2.1413784-0.0929565-4.5155163-1.1154938-6.1448269
			c-0.6971741-1.1172409-1.9521179-1.8155174-3.8577423-1.8155174c-2.5098572,0-5.0197144,1.722414-6.5535278,4.1896553v15.5948277
			h-4.787323V11.8241377z M242.9187317,15.9672413h-6.460556v10.2413788c0,0.6051731,0,1.1637936,0.0464783,1.8620701
			c0.1394348,2.2344818,0.8830872,3.5379314,2.9746399,3.5379314c1.0225372,0,1.9056396-0.2793121,2.649292-0.6517258
			l1.3943787,3.770689c-1.2549438,0.6982765-3.0676117,1.1172409-4.6943665,1.1172409
			c-3.3929596,0-5.5309906-1.582756-6.4605713-4.0034466c-0.511261-1.3034477-0.6971893-2.9327583-0.6971893-4.6551723V15.9672413
			h-3.0675964v-4.1431036h3.0675964l0.2324066-5.5396547h4.5549316v5.5396547h6.460556V15.9672413z M262.9790039,13.965517
			l-2.7887268,3.0258617c-1.0690002-0.9775848-2.9746399-1.8155165-4.6478882-1.8155165
			c-1.9056244,0-3.2070312,1.1172419-3.2070312,2.7931032c0,1.722414,2.1380157,2.5603447,4.3225403,3.444828
			c3.0675964,1.2103443,6.8788757,2.8862057,6.8788757,7.075861c0,5.2603455-4.1831055,7.4482765-8.6450806,7.4482765
			c-3.3464813,0-6.414093-1.3034477-8.4591522-3.7706909l3.160553-2.7465496
			c1.62677,1.6758614,3.2535248,2.5603447,5.252121,2.5603447c2.0450745,0,3.9042358-1.0241394,3.9042358-3.2120705
			c0-1.8155155-2.138031-2.6534481-4.4619904-3.5844822c-3.0675964-1.256897-6.5535126-2.6534481-6.5535126-6.8431034
			c0-4.7948275,3.7647858-7.0758619,7.8084412-7.0758619C258.3311157,11.2655172,261.026886,12.1965513,262.9790039,13.965517z"/>
	</g>
	<g id="icon" transform="translate(171.000000, 150.000000)">
		<path id="Fill-1" class="st1" d="M118.1331863,92.474556c11.9358597,0.0005341,24.9040909-7.8596802,27.8191147-19.5244827
			c3.347168-13.3947258-4.4973907-27.1984215-17.6578217-31.0540352c-2.5180054-0.737648-5.1036301-0.9776421-7.7185364-0.9733582
			c-3.8437424,0.0062447-7.6873016,0.0016022-11.6348648,0.0016022c0.2685165-9.818716-3.1963196-17.9232121-10.9624176-23.9576893
			c-4.9517136-3.8477621-10.6527252-5.6481667-16.8920135-5.4474277
			c-7.0684509,0.2271471-13.1723251,2.8981333-18.1863327,7.9278469
			c-5.0006981,5.0165081-7.6109924,11.1532288-8.0839615,18.0764866C51.1779518,36.2671432,47.6171074,35.0373726,44,33.7885094
			c0.9635086-11.949049,10.6190033-28.453886,29.3350983-32.7862778c21.3489304-4.9421015,41.1339493,8.9936352,45.777565,28.596096
			c1.7745667,0,3.6206589-0.1746864,5.4245071,0.0276585c14.4925537,1.6255379,24.771347,9.2423744,30.5003967,22.6328163
			c7.0792694,16.545517,1.0652008,36.0321732-13.7177124,45.7245636
			c-6.1446991,4.0286942-15.8466873,6.0000381-23.1582718,6.0166321"/>
		<path id="Fill-3" class="st1" d="M109.5558777,103.9322357c0,0-17.5364456,0.1301727-31.9681473,0.0296783
			c-15.178524-0.1056824-27.4244461-9.8466949-31.2066154-23.0890045
			c-3.2844048-11.4986343-0.6485596-21.8002472,7.2424812-30.7573204
			c5.0206566-5.6988029,11.2489624-9.3515472,18.7838898-10.6506729
			c12.7037048-2.1901817,25.490242,3.4830475,32.3330383,14.3787041c4.4174652,7.0335083,6.0730209,14.6814423,4.88797,22.9212723
			c-0.074234,0.5160675-0.1943665,0.7893066-0.8058167,0.7882309c-10.2498474-0.016983-20.499527-0.0125122-30.7491989-0.0153732
			c-0.1443405,0-0.2885056-0.0311203-0.5095978-0.0568695c-0.0175705-0.3081055-0.0478745-0.595108-0.048233-0.8822937
			c-0.0032272-3.158844-0.0037613-6.3178711-0.0012512-9.4767227c0.0010757-1.282135,0.1411133-1.4158936,1.4473801-1.4158936
			c5.7673035-0.0003586,11.5346069-0.0001755,17.3019028-0.0001755c0.355751,0,0.7115021,0,1.2128525,0
			c-0.1629944-0.5074921-0.2621536-0.9295044-0.4294434-1.3225479c-3.0340958-7.134903-8.3726654-11.570343-16.0117798-12.842289
			c-7.6588287-1.2751617-14.3465271,0.9915543-19.3775864,6.9721756c-7.7371902,9.1972237-5.3149033,23.8450508,4.840271,30.4640617
			c3.4977875,2.2797699,7.3215561,3.412056,11.506813,3.4079437c14.2839508-0.0144882,31.522377-0.0032196,31.522377-0.0032196
			L109.5558777,103.9322357"/>
		<path id="Fill-4" class="st1" d="M39.8945999,89.8570709c2.4082375,3.0462875,4.752121,6.0113449,7.0812912,8.9576645
			c-9.7838211,6.1571884-26.2769871,6.3965683-37.7771034-5.256424C-2.4098244,81.7951736-3.132792,62.9119644,7.6085434,50.2068291
			C18.5014572,37.3224678,35.8115501,36.3751106,47,43.1677971c-2.3281059,2.9386406-4.6691513,5.8933487-7.1048698,8.9678383
			c-5.5316391-2.398468-11.3247795-2.4804039-17.0544491,0.2354546c-3.8518677,1.8258095-6.8270626,4.6539497-8.935688,8.3801804
			c-4.3661718,7.7159462-3.388978,17.2801857,2.4405041,23.9427376
			C21.8870659,91.0279236,31.1613693,93.7452087,39.8945999,89.8570709"/>
	</g>
</g>
</svg>
