<?xml version="1.0" encoding="UTF-8"?>
<svg width="500px" height="500px" viewBox="0 0 500 500" version="1.1" xmlns="http://www.w3.org/2000/svg" xmlns:xlink="http://www.w3.org/1999/xlink">
    <!-- Generator: Sketch 51.1 (57501) - http://www.bohemiancoding.com/sketch -->
    <title>cloudevents-transparent</title>
    <desc>Created with Sketch.</desc>
    <defs></defs>
    <g id="cloudevents-transparent" stroke="none" stroke-width="1" fill="none" fill-rule="evenodd">
        <g id="text" transform="translate(118.000000, 284.000000)" fill="#000000">
            <path d="M17.71,29.9327586 L20.1269014,33.4706897 C18.2677465,35.0534483 15.5719718,35.937931 12.6438028,35.937931 C5.85788731,35.937931 0.605774632,31.0034483 0.605774632,23.6017241 C0.605774632,16.712069 5.90436618,11.2655172 12.8297183,11.2655172 C15.5254929,11.2655172 17.8959155,12.0568966 19.894507,13.5 L17.5705634,17.2706897 C16.222676,16.2465517 14.5494366,15.5948276 12.8297183,15.5948276 C8.73957745,15.5948276 5.48605632,19.1793103 5.48605632,23.6017241 C5.48605632,28.3965517 8.92549294,31.6086207 12.8297183,31.6086207 C14.41,31.6086207 16.4085915,30.9568966 17.71,29.9327586 Z M30.2871831,0.465517241 L30.2871831,35.3793103 L25.4998591,35.3793103 L25.4998591,0.465517241 L30.2871831,0.465517241 Z M48.4883098,11.2655172 C55.413662,11.2655172 60.5728169,16.712069 60.5728169,23.6017241 C60.5728169,30.4913793 55.413662,35.937931 48.4883098,35.937931 C41.5164789,35.937931 36.4038028,30.4913793 36.4038028,23.6017241 C36.4038028,16.712069 41.5164789,11.2655172 48.4883098,11.2655172 Z M55.6925352,23.6017241 C55.6925352,19.1793103 52.6714084,15.5948276 48.4883098,15.5948276 C44.3052113,15.5948276 41.2840845,19.1793103 41.2840845,23.6017241 C41.2840845,27.9775862 44.3052113,31.6086207 48.4883098,31.6086207 C52.6714084,31.6086207 55.6925352,27.9775862 55.6925352,23.6017241 Z M87.5584507,35.3793103 L83.0035211,35.3793103 L82.8640845,31.6551724 C81.0978873,34.4017241 78.262676,35.937931 75.2415493,35.937931 C72.1274648,35.937931 69.9429577,34.8206897 68.5485915,32.9586207 C66.921831,30.7241379 66.4570422,27.6051724 66.4570422,24.0672414 L66.4570422,11.8241379 L71.2443662,11.8241379 L71.2443662,23.6482759 C71.2443662,25.7896552 71.3373239,28.1637931 72.3598591,29.7931034 C73.0570422,30.9103448 74.3119718,31.6086207 76.2176056,31.6086207 C78.7274648,31.6086207 81.2373239,29.8862069 82.7711268,27.4189655 L82.7711268,11.8241379 L87.5584507,11.8241379 L87.5584507,35.3793103 Z M117.379296,0.465517241 L117.379296,35.3793103 L112.824366,35.3793103 L112.68493,32.2603448 C111.01169,34.7275862 107.944085,35.937931 105.201831,35.937931 C98.5553521,35.937931 93.6750704,30.4448276 93.6750704,23.5551724 C93.6750704,17.2241379 98.3229577,11.2655172 105.294789,11.2655172 C107.944085,11.2655172 110.732817,12.3827586 112.591972,14.337931 L112.591972,0.465517241 L117.379296,0.465517241 Z M112.591972,18.9931034 C111.01169,16.7586207 108.408873,15.5948276 106.08493,15.5948276 C100.972254,15.5948276 98.5553521,19.7844828 98.5553521,23.6482759 C98.5553521,27.837931 101.390563,31.6086207 105.991972,31.6086207 C108.408873,31.6086207 111.383521,30.212069 112.591972,27.4189655 L112.591972,18.9931034 Z M128.329718,24.812069 C128.65507,28.6758621 131.257887,31.887931 135.440986,31.887931 C138.55507,31.887931 140.832535,30.7241379 142.27338,28.1637931 L145.619859,30.3517241 C143.202958,34.1689655 140.042394,35.937931 135.208592,35.937931 C127.818451,35.937931 123.495915,30.5844828 123.495915,23.6482759 C123.495915,16.6189655 128.608592,11.2655172 135.208592,11.2655172 C141.529718,11.2655172 146.131127,15.9206897 146.131127,22.2051724 C146.131127,23.0431034 146.038169,24.1137931 145.898732,24.812069 L128.329718,24.812069 Z M141.157887,21.1344828 C140.971972,17.9224138 138.601549,15.2689655 135.301549,15.2689655 C131.676197,15.2689655 129.445211,17.8293103 128.608592,21.1344828 L141.157887,21.1344828 Z M166.005493,11.8241379 L171.164648,11.8241379 L161.868873,35.3793103 L157.778732,35.3793103 L148.854789,11.8241379 L154.15338,11.8241379 L160.056197,29.2810345 L160.149155,29.2810345 L166.005493,11.8241379 Z M178.629155,24.812069 C178.954507,28.6758621 181.557324,31.887931 185.740423,31.887931 C188.854507,31.887931 191.131972,30.7241379 192.572817,28.1637931 L195.919296,30.3517241 C193.502394,34.1689655 190.341831,35.937931 185.508028,35.937931 C178.117887,35.937931 173.795352,30.5844828 173.795352,23.6482759 C173.795352,16.6189655 178.908028,11.2655172 185.508028,11.2655172 C191.829155,11.2655172 196.430563,15.9206897 196.430563,22.2051724 C196.430563,23.0431034 196.337606,24.1137931 196.198169,24.812069 L178.629155,24.812069 Z M191.457324,21.1344828 C191.271408,17.9224138 188.900986,15.2689655 185.600986,15.2689655 C181.975634,15.2689655 179.744648,17.8293103 178.908028,21.1344828 L191.457324,21.1344828 Z M202.547183,11.8241379 L207.102113,11.8241379 L207.241549,15.5482759 C209.007746,12.8017241 211.842958,11.2655172 214.864085,11.2655172 C217.978169,11.2655172 220.162676,12.3827586 221.557042,14.2448276 C223.183803,16.4793103 223.648592,19.5982759 223.648592,23.1362069 L223.648592,35.3793103 L218.861268,35.3793103 L218.861268,23.5551724 C218.861268,21.4137931 218.76831,19.0396552 217.745775,17.4103448 C217.048592,16.2931034 215.793662,15.5948276 213.888028,15.5948276 C211.378169,15.5948276 208.86831,17.3172414 207.334507,19.7844828 L207.334507,35.3793103 L202.547183,35.3793103 L202.547183,11.8241379 Z M242.918732,15.9672414 L236.458169,15.9672414 L236.458169,26.2086207 C236.458169,26.8137931 236.458169,27.3724138 236.504648,28.0706897 C236.644085,30.3051724 237.387746,31.6086207 239.479296,31.6086207 C240.501831,31.6086207 241.38493,31.3293103 242.128592,30.9568966 L243.522958,34.7275862 C242.268028,35.4258621 240.455352,35.8448276 238.828592,35.8448276 C235.435634,35.8448276 233.297606,34.262069 232.368028,31.8413793 C231.856761,30.537931 231.670845,28.9086207 231.670845,27.1862069 L231.670845,15.9672414 L228.603239,15.9672414 L228.603239,11.8241379 L231.670845,11.8241379 L231.903239,6.28448276 L236.458169,6.28448276 L236.458169,11.8241379 L242.918732,11.8241379 L242.918732,15.9672414 Z M262.979014,13.9655172 L260.190282,16.9913793 C259.121268,16.0137931 257.215634,15.1758621 255.542394,15.1758621 C253.636761,15.1758621 252.335352,16.2931034 252.335352,17.9689655 C252.335352,19.6913793 254.47338,20.5293103 256.657887,21.4137931 C259.725493,22.6241379 263.536761,24.3 263.536761,28.4896552 C263.536761,33.75 259.353662,35.937931 254.89169,35.937931 C251.545211,35.937931 248.477606,34.6344828 246.432535,32.1672414 L249.593099,29.4206897 C251.219859,31.0965517 252.84662,31.9810345 254.845211,31.9810345 C256.890282,31.9810345 258.749437,30.9568966 258.749437,28.7689655 C258.749437,26.9534483 256.611408,26.1155172 254.287465,25.1844828 C251.219859,23.9275862 247.733944,22.5310345 247.733944,18.3413793 C247.733944,13.5465517 251.498732,11.2655172 255.542394,11.2655172 C258.331127,11.2655172 261.026901,12.1965517 262.979014,13.9655172 Z" id="cloudevents"></path>
        </g>
        <g id="icon" transform="translate(171.000000, 150.000000)" fill="#4DCEF3">
            <path d="M118.133184,92.4745565 C130.069047,92.4750918 143.037279,84.6148721 145.952296,72.9500712 C149.299463,59.5553475 141.454917,45.7516518 128.294481,41.8960384 C125.776474,41.15839 123.19085,40.9183956 120.575942,40.922678 C116.732201,40.9289232 112.888638,40.9242839 108.941076,40.9242839 C109.209594,31.1055667 105.744762,23.0010701 97.9786596,16.9665926 C93.0269466,13.1188303 87.3259366,11.3184258 81.0866468,11.5191647 C74.0181966,11.7463118 67.9143197,14.4172984 62.9003131,19.4470111 C57.8996171,24.4635196 55.2893237,30.6002401 54.8163545,37.5235001 C51.1779519,36.2671425 47.6171056,35.0373717 44,33.7885084 C44.9635085,21.8394613 54.6190029,5.33462366 73.3350976,1.00223314 C94.684025,-3.93986819 114.469048,9.99586903 119.112666,29.5983302 C120.887232,29.5983302 122.733321,29.4236428 124.53717,29.6259876 C139.029729,31.2515262 149.308514,38.8683612 155.037565,52.2588025 C162.116841,68.8043232 156.102766,88.2909804 141.319859,97.9833659 C135.175163,102.012061 125.47317,103.983406 118.16158,104" id="Fill-1"></path>
            <path d="M109.555875,103.932232 C109.555875,103.932232 92.019434,104.062412 77.5877324,103.961916 C62.409208,103.856233 50.1632857,94.1152162 46.3811166,80.872912 C43.0967098,69.3742773 45.7325551,59.0726608 53.6235948,50.1155887 C58.6442526,44.4167879 64.8725579,40.7640406 72.4074894,39.4649164 C85.1111882,37.2747344 97.8977278,42.947964 104.740526,53.843619 C109.157987,60.8771291 110.813549,68.5250632 109.628495,76.76489 C109.554261,77.2809633 109.434124,77.5541996 108.822679,77.5531267 C98.5728269,77.5361388 88.323154,77.5406093 78.0734811,77.5377482 C77.9291372,77.5377482 77.7849726,77.5066336 77.5638843,77.4808836 C77.546312,77.1727775 77.5160087,76.8857721 77.5156501,76.5985878 C77.5124226,73.4397402 77.5118846,70.2807137 77.514395,67.121866 C77.5154708,65.8397297 77.6555113,65.7059727 78.9617789,65.7059727 C84.7290802,65.7056151 90.4963816,65.7057939 96.2636829,65.7057939 C96.6194324,65.7057939 96.9751819,65.7057939 97.4765304,65.7057939 C97.3135384,65.1983039 97.2143804,64.7762898 97.0470849,64.3832444 C94.0129938,57.2483436 88.6744207,52.8129031 81.0353106,51.5409595 C73.3764764,50.2657971 66.6887809,52.532514 61.6577231,58.5131344 C53.9205308,67.7103612 56.3428189,82.3581873 66.4979959,88.9771936 C69.9957806,91.2569643 73.8195494,92.3892498 78.0048056,92.3851369 C92.2887564,92.3706525 109.527185,92.3819182 109.527185,92.3819182 L109.555875,103.932232" id="Fill-3"></path>
            <path d="M39.8945998,89.8570714 C42.3028374,92.9033551 44.6467207,95.8684165 46.9758893,98.8147343 C37.1920693,104.971923 20.6989035,105.211305 9.1987887,93.5583106 C-2.40982442,81.7951748 -3.13279211,62.9119646 7.60854344,50.2068283 C18.5014576,37.3224674 35.811552,36.3751115 47,43.1677976 C44.6718951,46.1064394 42.3308484,49.0611471 39.8951317,52.1356355 C34.3634892,49.7371669 28.5703516,49.6552305 22.840682,52.371091 C18.9888137,54.1968977 16.013619,57.0250414 13.9049928,60.751272 C9.53882107,68.467215 10.5160153,78.031457 16.3454963,84.6940088 C21.8870667,91.0279226 31.1613699,93.7452112 39.8945998,89.8570714" id="Fill-4"></path>
        </g>
    </g>
</svg>