<?xml version="1.0" encoding="UTF-8"?>
<svg width="451px" height="116px" viewBox="0 0 451 116" version="1.1" xmlns="http://www.w3.org/2000/svg" xmlns:xlink="http://www.w3.org/1999/xlink">
    <!-- Generator: Sketch 51.1 (57501) - http://www.bohemiancoding.com/sketch -->
    <title>cloudevents-transparent-horizontal</title>
    <desc>Created with Sketch.</desc>
    <defs></defs>
    <g id="cloudevents-transparent-horizontal" stroke="none" stroke-width="1" fill="none" fill-rule="evenodd">
        <g id="text" transform="translate(154.000000, 42.000000)" fill="#000000">
            <path d="M17.71,29.9327586 L20.1269014,33.4706897 C18.2677465,35.0534483 15.5719718,35.937931 12.6438028,35.937931 C5.85788731,35.937931 0.605774632,31.0034483 0.605774632,23.6017241 C0.605774632,16.712069 5.90436618,11.2655172 12.8297183,11.2655172 C15.5254929,11.2655172 17.8959155,12.0568966 19.894507,13.5 L17.5705634,17.2706897 C16.222676,16.2465517 14.5494366,15.5948276 12.8297183,15.5948276 C8.73957745,15.5948276 5.48605632,19.1793103 5.48605632,23.6017241 C5.48605632,28.3965517 8.92549294,31.6086207 12.8297183,31.6086207 C14.41,31.6086207 16.4085915,30.9568966 17.71,29.9327586 Z M30.2871831,0.465517241 L30.2871831,35.3793103 L25.4998591,35.3793103 L25.4998591,0.465517241 L30.2871831,0.465517241 Z M48.4883098,11.2655172 C55.413662,11.2655172 60.5728169,16.712069 60.5728169,23.6017241 C60.5728169,30.4913793 55.413662,35.937931 48.4883098,35.937931 C41.5164789,35.937931 36.4038028,30.4913793 36.4038028,23.6017241 C36.4038028,16.712069 41.5164789,11.2655172 48.4883098,11.2655172 Z M55.6925352,23.6017241 C55.6925352,19.1793103 52.6714084,15.5948276 48.4883098,15.5948276 C44.3052113,15.5948276 41.2840845,19.1793103 41.2840845,23.6017241 C41.2840845,27.9775862 44.3052113,31.6086207 48.4883098,31.6086207 C52.6714084,31.6086207 55.6925352,27.9775862 55.6925352,23.6017241 Z M87.5584507,35.3793103 L83.0035211,35.3793103 L82.8640845,31.6551724 C81.0978873,34.4017241 78.262676,35.937931 75.2415493,35.937931 C72.1274648,35.937931 69.9429577,34.8206897 68.5485915,32.9586207 C66.921831,30.7241379 66.4570422,27.6051724 66.4570422,24.0672414 L66.4570422,11.8241379 L71.2443662,11.8241379 L71.2443662,23.6482759 C71.2443662,25.7896552 71.3373239,28.1637931 72.3598591,29.7931034 C73.0570422,30.9103448 74.3119718,31.6086207 76.2176056,31.6086207 C78.7274648,31.6086207 81.2373239,29.8862069 82.7711268,27.4189655 L82.7711268,11.8241379 L87.5584507,11.8241379 L87.5584507,35.3793103 Z M117.379296,0.465517241 L117.379296,35.3793103 L112.824366,35.3793103 L112.68493,32.2603448 C111.01169,34.7275862 107.944085,35.937931 105.201831,35.937931 C98.5553521,35.937931 93.6750704,30.4448276 93.6750704,23.5551724 C93.6750704,17.2241379 98.3229577,11.2655172 105.294789,11.2655172 C107.944085,11.2655172 110.732817,12.3827586 112.591972,14.337931 L112.591972,0.465517241 L117.379296,0.465517241 Z M112.591972,18.9931034 C111.01169,16.7586207 108.408873,15.5948276 106.08493,15.5948276 C100.972254,15.5948276 98.5553521,19.7844828 98.5553521,23.6482759 C98.5553521,27.837931 101.390563,31.6086207 105.991972,31.6086207 C108.408873,31.6086207 111.383521,30.212069 112.591972,27.4189655 L112.591972,18.9931034 Z M128.329718,24.812069 C128.65507,28.6758621 131.257887,31.887931 135.440986,31.887931 C138.55507,31.887931 140.832535,30.7241379 142.27338,28.1637931 L145.619859,30.3517241 C143.202958,34.1689655 140.042394,35.937931 135.208592,35.937931 C127.818451,35.937931 123.495915,30.5844828 123.495915,23.6482759 C123.495915,16.6189655 128.608592,11.2655172 135.208592,11.2655172 C141.529718,11.2655172 146.131127,15.9206897 146.131127,22.2051724 C146.131127,23.0431034 146.038169,24.1137931 145.898732,24.812069 L128.329718,24.812069 Z M141.157887,21.1344828 C140.971972,17.9224138 138.601549,15.2689655 135.301549,15.2689655 C131.676197,15.2689655 129.445211,17.8293103 128.608592,21.1344828 L141.157887,21.1344828 Z M166.005493,11.8241379 L171.164648,11.8241379 L161.868873,35.3793103 L157.778732,35.3793103 L148.854789,11.8241379 L154.15338,11.8241379 L160.056197,29.2810345 L160.149155,29.2810345 L166.005493,11.8241379 Z M178.629155,24.812069 C178.954507,28.6758621 181.557324,31.887931 185.740423,31.887931 C188.854507,31.887931 191.131972,30.7241379 192.572817,28.1637931 L195.919296,30.3517241 C193.502394,34.1689655 190.341831,35.937931 185.508028,35.937931 C178.117887,35.937931 173.795352,30.5844828 173.795352,23.6482759 C173.795352,16.6189655 178.908028,11.2655172 185.508028,11.2655172 C191.829155,11.2655172 196.430563,15.9206897 196.430563,22.2051724 C196.430563,23.0431034 196.337606,24.1137931 196.198169,24.812069 L178.629155,24.812069 Z M191.457324,21.1344828 C191.271408,17.9224138 188.900986,15.2689655 185.600986,15.2689655 C181.975634,15.2689655 179.744648,17.8293103 178.908028,21.1344828 L191.457324,21.1344828 Z M202.547183,11.8241379 L207.102113,11.8241379 L207.241549,15.5482759 C209.007746,12.8017241 211.842958,11.2655172 214.864085,11.2655172 C217.978169,11.2655172 220.162676,12.3827586 221.557042,14.2448276 C223.183803,16.4793103 223.648592,19.5982759 223.648592,23.1362069 L223.648592,35.3793103 L218.861268,35.3793103 L218.861268,23.5551724 C218.861268,21.4137931 218.76831,19.0396552 217.745775,17.4103448 C217.048592,16.2931034 215.793662,15.5948276 213.888028,15.5948276 C211.378169,15.5948276 208.86831,17.3172414 207.334507,19.7844828 L207.334507,35.3793103 L202.547183,35.3793103 L202.547183,11.8241379 Z M242.918732,15.9672414 L236.458169,15.9672414 L236.458169,26.2086207 C236.458169,26.8137931 236.458169,27.3724138 236.504648,28.0706897 C236.644085,30.3051724 237.387746,31.6086207 239.479296,31.6086207 C240.501831,31.6086207 241.38493,31.3293103 242.128592,30.9568966 L243.522958,34.7275862 C242.268028,35.4258621 240.455352,35.8448276 238.828592,35.8448276 C235.435634,35.8448276 233.297606,34.262069 232.368028,31.8413793 C231.856761,30.537931 231.670845,28.9086207 231.670845,27.1862069 L231.670845,15.9672414 L228.603239,15.9672414 L228.603239,11.8241379 L231.670845,11.8241379 L231.903239,6.28448276 L236.458169,6.28448276 L236.458169,11.8241379 L242.918732,11.8241379 L242.918732,15.9672414 Z M262.979014,13.9655172 L260.190282,16.9913793 C259.121268,16.0137931 257.215634,15.1758621 255.542394,15.1758621 C253.636761,15.1758621 252.335352,16.2931034 252.335352,17.9689655 C252.335352,19.6913793 254.47338,20.5293103 256.657887,21.4137931 C259.725493,22.6241379 263.536761,24.3 263.536761,28.4896552 C263.536761,33.75 259.353662,35.937931 254.89169,35.937931 C251.545211,35.937931 248.477606,34.6344828 246.432535,32.1672414 L249.593099,29.4206897 C251.219859,31.0965517 252.84662,31.9810345 254.845211,31.9810345 C256.890282,31.9810345 258.749437,30.9568966 258.749437,28.7689655 C258.749437,26.9534483 256.611408,26.1155172 254.287465,25.1844828 C251.219859,23.9275862 247.733944,22.5310345 247.733944,18.3413793 C247.733944,13.5465517 251.498732,11.2655172 255.542394,11.2655172 C258.331127,11.2655172 261.026901,12.1965517 262.979014,13.9655172 Z" id="cloudevents"></path>
        </g>
        <g id="icon" transform="translate(33.000000, 24.000000)" fill="#4DCEF3">
            <path d="M74.7269191,58.6857762 C82.2935137,58.6861159 90.5145656,53.6978996 92.362505,46.2952375 C94.4844007,37.7947398 89.5114467,29.0347021 81.1685489,26.5878705 C79.5722893,26.1197475 77.9331643,25.9674433 76.2754755,25.970161 C73.8387832,25.9741243 71.4022034,25.9711802 68.8996941,25.9711802 C69.0699182,19.7400712 66.8734299,14.596833 61.9502044,10.7672607 C58.8111264,8.32541151 55.1970407,7.18284714 51.2417192,7.31023911 C46.7607615,7.45439019 42.8912833,9.14943936 39.7127151,12.3413724 C36.5425849,15.5249259 34.8878213,19.4193832 34.5879882,23.8129905 C32.2814674,23.0156866 30.0241124,22.2352551 27.7310924,21.4427073 C28.3418969,13.8596581 34.4628796,3.38543424 46.3277193,0.636032569 C59.861611,-2.50030096 72.4040847,6.34353227 75.3478493,18.7835557 C76.472814,18.7835557 77.6431194,18.6726964 78.7866479,18.8011075 C87.9740287,19.8326993 94.4901386,24.66646 98.1220004,33.16424 C102.609821,43.664282 98.7972718,56.0308145 89.4258284,62.1817514 C85.5304734,64.7384232 79.3800136,65.9894689 74.7449204,66" id="Fill-1"></path>
            <path d="M69.4665527,65.9567726 C69.4665527,65.9567726 58.3574954,66.0398109 49.215241,65.9757072 C39.5998861,65.9082956 31.8422883,59.6947947 29.446344,51.2479285 C27.3657244,43.9132964 29.0354907,37.3422061 34.0343393,31.6287601 C37.2148465,27.9936671 41.1603793,25.6636898 45.9336391,24.8350177 C53.981231,23.4379667 62.0813014,27.0567486 66.4161055,34.0067582 C69.2144975,38.493222 70.2632698,43.3716084 69.5125565,48.6275452 C69.4655304,48.9567328 69.3894254,49.131022 69.0020851,49.1303376 C62.508966,49.1195016 56.0159605,49.1223532 49.522955,49.1205281 C49.4315155,49.1205281 49.3401895,49.1006811 49.2001336,49.0842559 C49.1890018,48.8877243 49.1698052,48.7046522 49.169578,48.5214661 C49.1675334,46.5065325 49.1671926,44.4914848 49.1687828,42.4765512 C49.1694644,41.6587152 49.2581778,41.5733956 50.0856776,41.5733956 C53.7391717,41.5731675 57.3926658,41.5732815 61.0461599,41.5732815 C61.2715215,41.5732815 61.4968832,41.5732815 61.8144795,41.5732815 C61.7112266,41.249569 61.6484116,40.9803789 61.5424326,40.7296671 C59.6203839,36.1785292 56.2384824,33.3492956 51.3992271,32.5379611 C46.547477,31.7245736 42.3109278,33.1704438 39.1238324,36.9853011 C34.2224436,42.8519346 35.7569247,52.1953408 42.1900685,56.4174051 C44.4058597,57.871602 46.8281567,58.5938528 49.4794502,58.5912293 C58.5281069,58.5819902 69.4483784,58.5891762 69.4483784,58.5891762 L69.4665527,65.9567726" id="Fill-3"></path>
            <path d="M24.9653315,56.8131415 C26.4723639,58.74636 27.9391243,60.6280335 29.3966766,62.4978121 C23.274136,66.4052585 12.9530059,66.5571745 5.75643848,59.1620048 C-1.5080253,51.6969379 -1.96044563,39.7133621 4.76129126,31.6504872 C11.5778833,23.4738735 22.4102328,22.8726669 29.4117647,27.18341 C27.954878,29.0483173 26.4898926,30.9234203 24.9656644,32.8745379 C21.5040608,31.3524328 17.8788183,31.3004347 14.2932928,33.0239616 C11.8828621,34.1826466 10.0210382,35.9774301 8.70149737,38.3421534 C5.9692247,43.2388095 6.58073546,49.3084246 10.2287211,53.5365825 C13.6965373,57.5561816 19.5002315,59.2806148 24.9653315,56.8131415" id="Fill-4"></path>
        </g>
    </g>
</svg>