<?xml version="1.0" encoding="UTF-8"?>
<svg width="250px" height="250px" viewBox="0 0 250 250" version="1.1" xmlns="http://www.w3.org/2000/svg" xmlns:xlink="http://www.w3.org/1999/xlink">
    <!-- Generator: Sketch 51.1 (57501) - http://www.bohemiancoding.com/sketch -->
    <title>cloudevents-white-icon</title>
    <desc>Created with Sketch.</desc>
    <defs></defs>
    <g id="cloudevents-white-icon" stroke="none" stroke-width="1" fill="none" fill-rule="evenodd">
        <rect fill="#FFFFFF" x="0" y="0" width="250" height="250"></rect>
        <g id="icon" transform="translate(48.000000, 69.000000)" fill="#4DCEF3">
            <path d="M118.133184,92.4745565 C130.069047,92.4750918 143.037279,84.6148721 145.952296,72.9500712 C149.299463,59.5553475 141.454917,45.7516518 128.294481,41.8960384 C125.776474,41.15839 123.19085,40.9183956 120.575942,40.922678 C116.732201,40.9289232 112.888638,40.9242839 108.941076,40.9242839 C109.209594,31.1055667 105.744762,23.0010701 97.9786596,16.9665926 C93.0269466,13.1188303 87.3259366,11.3184258 81.0866468,11.5191647 C74.0181966,11.7463118 67.9143197,14.4172984 62.9003131,19.4470111 C57.8996171,24.4635196 55.2893237,30.6002401 54.8163545,37.5235001 C51.1779519,36.2671425 47.6171056,35.0373717 44,33.7885084 C44.9635085,21.8394613 54.6190029,5.33462366 73.3350976,1.00223314 C94.684025,-3.93986819 114.469048,9.99586903 119.112666,29.5983302 C120.887232,29.5983302 122.733321,29.4236428 124.53717,29.6259876 C139.029729,31.2515262 149.308514,38.8683612 155.037565,52.2588025 C162.116841,68.8043232 156.102766,88.2909804 141.319859,97.9833659 C135.175163,102.012061 125.47317,103.983406 118.16158,104" id="Fill-1"></path>
            <path d="M109.555875,103.932232 C109.555875,103.932232 92.019434,104.062412 77.5877324,103.961916 C62.409208,103.856233 50.1632857,94.1152162 46.3811166,80.872912 C43.0967098,69.3742773 45.7325551,59.0726608 53.6235948,50.1155887 C58.6442526,44.4167879 64.8725579,40.7640406 72.4074894,39.4649164 C85.1111882,37.2747344 97.8977278,42.947964 104.740526,53.843619 C109.157987,60.8771291 110.813549,68.5250632 109.628495,76.76489 C109.554261,77.2809633 109.434124,77.5541996 108.822679,77.5531267 C98.5728269,77.5361388 88.323154,77.5406093 78.0734811,77.5377482 C77.9291372,77.5377482 77.7849726,77.5066336 77.5638843,77.4808836 C77.546312,77.1727775 77.5160087,76.8857721 77.5156501,76.5985878 C77.5124226,73.4397402 77.5118846,70.2807137 77.514395,67.121866 C77.5154708,65.8397297 77.6555113,65.7059727 78.9617789,65.7059727 C84.7290802,65.7056151 90.4963816,65.7057939 96.2636829,65.7057939 C96.6194324,65.7057939 96.9751819,65.7057939 97.4765304,65.7057939 C97.3135384,65.1983039 97.2143804,64.7762898 97.0470849,64.3832444 C94.0129938,57.2483436 88.6744207,52.8129031 81.0353106,51.5409595 C73.3764764,50.2657971 66.6887809,52.532514 61.6577231,58.5131344 C53.9205308,67.7103612 56.3428189,82.3581873 66.4979959,88.9771936 C69.9957806,91.2569643 73.8195494,92.3892498 78.0048056,92.3851369 C92.2887564,92.3706525 109.527185,92.3819182 109.527185,92.3819182 L109.555875,103.932232" id="Fill-3"></path>
            <path d="M39.8945998,89.8570714 C42.3028374,92.9033551 44.6467207,95.8684165 46.9758893,98.8147343 C37.1920693,104.971923 20.6989035,105.211305 9.1987887,93.5583106 C-2.40982442,81.7951748 -3.13279211,62.9119646 7.60854344,50.2068283 C18.5014576,37.3224674 35.811552,36.3751115 47,43.1677976 C44.6718951,46.1064394 42.3308484,49.0611471 39.8951317,52.1356355 C34.3634892,49.7371669 28.5703516,49.6552305 22.840682,52.371091 C18.9888137,54.1968977 16.013619,57.0250414 13.9049928,60.751272 C9.53882107,68.467215 10.5160153,78.031457 16.3454963,84.6940088 C21.8870667,91.0279226 31.1613699,93.7452112 39.8945998,89.8570714" id="Fill-4"></path>
        </g>
    </g>
</svg>