<?xml version="1.0" encoding="utf-8"?>
<!-- Generator: Adobe Illustrator 21.1.0, SVG Export Plug-In . SVG Version: 6.00 Build 0)  -->
<svg version="1.1" id="Layer_1" xmlns="http://www.w3.org/2000/svg" xmlns:xlink="http://www.w3.org/1999/xlink" x="0px" y="0px"
	 viewBox="0 0 451 116" style="enable-background:new 0 0 451 116;" xml:space="preserve">
<style type="text/css">
	.st0{fill:#4DCEF3;}
	.st1{fill:#FFFFFF;}
</style>
<g id="cloudevents-blue-horizontal">
	<rect class="st0" width="451" height="116"/>
	<g id="text" transform="translate(154.000000, 42.000000)">
		<path id="cloudevents" class="st1" d="M17.7099991,29.9327583l2.4169025,3.5379295
			c-1.8591557,1.5827599-4.5549297,2.4672432-7.483099,2.4672432c-6.7859154,0-12.0380278-4.9344826-12.0380278-12.3362064
			c0-6.8896561,5.2985916-12.3362074,12.2239437-12.3362074c2.6957741,0,5.0661974,0.791379,7.0647879,2.2344828
			l-2.3239422,3.770689c-1.3478889-1.0241375-3.0211277-1.6758614-4.7408457-1.6758614
			c-4.0901413,0-7.3436623,3.5844822-7.3436623,8.006897c0,4.7948265,3.4394369,8.006897,7.3436623,8.006897
			C14.4099998,31.6086216,16.4085922,30.9568958,17.7099991,29.9327583z M30.2871838,0.4655173v34.9137917h-4.7873249V0.4655173
			H30.2871838z M48.488308,11.2655172c6.925354,0,12.0845108,5.4465513,12.0845108,12.3362074
			S55.413662,35.9379311,48.488308,35.9379311c-6.9718285,0-12.084507-5.4465523-12.084507-12.3362064
			S41.5164795,11.2655172,48.488308,11.2655172z M55.6925354,23.6017246c0-4.4224148-3.0211258-8.006897-7.2042274-8.006897
			s-7.2042236,3.5844822-7.2042236,8.006897c0,4.3758621,3.0211258,8.006897,7.2042236,8.006897
			S55.6925354,27.9775867,55.6925354,23.6017246z M87.5584488,35.3793106h-4.554924l-0.1394424-3.7241383
			c-1.7661972,2.7465534-4.6014099,4.2827587-7.6225357,4.2827587c-3.1140823,0-5.2985916-1.1172409-6.692955-2.9793091
			c-1.6267624-2.2344837-2.0915527-5.3534489-2.0915527-8.8913803v-12.243104h4.7873306v11.8241377
			c0,2.1413803,0.0929565,4.5155182,1.1154861,6.1448288c0.6971893,1.1172409,1.9521179,1.8155174,3.8577499,1.8155174
			c2.5098572,0,5.019722-1.722414,6.5535202-4.1896553V11.8241377h4.787323V35.3793106z M117.3792953,0.4655173v34.9137917
			h-4.5549316l-0.1394348-3.1189651c-1.6732407,2.4672394-4.7408447,3.6775856-7.4831009,3.6775856
			c-6.6464767,0-11.5267563-5.493103-11.5267563-12.3827591c0-6.3310337,4.6478882-12.2896547,11.6197205-12.2896547
			c2.649292,0,5.4380264,1.1172409,7.2971802,3.0724134V0.4655173H117.3792953z M112.5919724,18.993103
			c-1.5802841-2.2344818-4.1830978-3.3982754-6.5070419-3.3982754c-5.1126785,0-7.5295792,4.1896553-7.5295792,8.0534477
			c0,4.1896553,2.8352127,7.9603462,7.4366226,7.9603462c2.4169006,0,5.3915482-1.396553,6.5999985-4.1896553V18.993103z
			 M128.3297119,24.8120689c0.3253632,3.8637924,2.9281769,7.0758629,7.1112671,7.0758629
			c3.11409,0,5.3915558-1.1637936,6.8323975-3.7241383l3.3464813,2.1879311
			c-2.4169006,3.8172398-5.5774689,5.5862064-10.4112701,5.5862064c-7.3901367,0-11.7126694-5.3534489-11.7126694-12.2896557
			c0-7.0293102,5.1126785-12.3827581,11.7126694-12.3827581c6.3211365,0,10.9225464,4.6551723,10.9225464,10.9396544
			c0,0.8379326-0.0929718,1.9086208-0.2324066,2.6068974H128.3297119z M141.1578827,21.1344833
			c-0.1859131-3.2120705-2.5563354-5.8655176-5.8563385-5.8655176c-3.625351,0-5.8563385,2.5603437-6.6929474,5.8655176H141.1578827
			z M166.0054932,11.8241377h5.1591492l-9.2957764,23.555172h-4.0901337l-8.9239502-23.555172h5.2985992l5.9028168,17.4568977
			h0.0929565L166.0054932,11.8241377z M178.6291504,24.8120689c0.3253632,3.8637924,2.9281769,7.0758629,7.1112671,7.0758629
			c3.11409,0,5.3915558-1.1637936,6.8323975-3.7241383l3.3464813,2.1879311
			c-2.4169006,3.8172398-5.5774689,5.5862064-10.4112701,5.5862064c-7.3901367,0-11.712677-5.3534489-11.712677-12.2896557
			c0-7.0293102,5.1126862-12.3827581,11.712677-12.3827581c6.3211365,0,10.9225311,4.6551723,10.9225311,10.9396544
			c0,0.8379326-0.0929565,1.9086208-0.2323914,2.6068974H178.6291504z M191.4573212,21.1344833
			c-0.1859131-3.2120705-2.5563354-5.8655176-5.8563385-5.8655176c-3.625351,0-5.8563385,2.5603437-6.6929474,5.8655176H191.4573212
			z M202.5471802,11.8241377h4.5549316l0.1394348,3.7241383c1.7662048-2.7465515,4.6014099-4.2827587,7.6225433-4.2827587
			c3.1140747,0,5.298584,1.1172409,6.6929474,2.97931c1.62677,2.2344837,2.0915527,5.3534489,2.0915527,8.8913803v12.243103
			h-4.787323V23.555172c0-2.1413784-0.0929565-4.5155163-1.1154938-6.1448269
			c-0.6971741-1.1172409-1.9521179-1.8155174-3.8577423-1.8155174c-2.5098572,0-5.0197144,1.722414-6.5535278,4.1896553v15.5948277
			h-4.787323V11.8241377z M242.9187317,15.9672413h-6.460556v10.2413788c0,0.6051731,0,1.1637936,0.0464783,1.8620701
			c0.1394348,2.2344818,0.8830872,3.5379314,2.9746399,3.5379314c1.0225372,0,1.9056396-0.2793121,2.649292-0.6517258
			l1.3943787,3.770689c-1.2549438,0.6982765-3.0676117,1.1172409-4.6943665,1.1172409
			c-3.3929596,0-5.5309906-1.582756-6.4605713-4.0034466c-0.511261-1.3034477-0.6971893-2.9327583-0.6971893-4.6551723V15.9672413
			h-3.0675964v-4.1431036h3.0675964l0.2324066-5.5396547h4.5549316v5.5396547h6.460556V15.9672413z M262.9790039,13.965517
			l-2.7887268,3.0258617c-1.0690002-0.9775848-2.9746399-1.8155165-4.6478882-1.8155165
			c-1.9056244,0-3.2070312,1.1172419-3.2070312,2.7931032c0,1.722414,2.1380157,2.5603447,4.3225403,3.444828
			c3.0675964,1.2103443,6.8788757,2.8862057,6.8788757,7.075861c0,5.2603455-4.1831055,7.4482765-8.6450806,7.4482765
			c-3.3464813,0-6.414093-1.3034477-8.4591522-3.7706909l3.160553-2.7465496
			c1.62677,1.6758614,3.2535248,2.5603447,5.252121,2.5603447c2.0450745,0,3.9042358-1.0241394,3.9042358-3.2120705
			c0-1.8155155-2.138031-2.6534481-4.4619904-3.5844822c-3.0675964-1.256897-6.5535126-2.6534481-6.5535126-6.8431034
			c0-4.7948275,3.7647858-7.0758619,7.8084412-7.0758619C258.3311157,11.2655172,261.026886,12.1965513,262.9790039,13.965517z"/>
	</g>
	<g id="icon" transform="translate(33.000000, 24.000000)">
		<path id="Fill-1" class="st1" d="M74.7269211,58.6857758c7.5665894,0.0003395,15.7876434-4.9878769,17.635582-12.3905373
			c2.1218948-8.5004997-2.851059-17.2605362-11.1939545-19.7073689c-1.5962601-0.4681225-3.2353821-0.6204262-4.893074-0.6177082
			c-2.4366913,0.0039635-4.8732681,0.0010185-7.3757782,0.0010185c0.1702194-6.2311096-2.026268-11.3743467-6.9494934-15.2039194
			c-3.1390762-2.4418488-6.7531624-3.5844135-10.7084846-3.4570212c-4.480957,0.1441507-8.3504333,1.8392005-11.5290031,5.0311332
			c-3.1701317,3.1835537-4.824894,7.0780115-5.1247253,11.4716177c-2.3065224-0.7973042-4.5638771-1.5777359-6.8568974-2.3702831
			c0.6108036-7.5830488,6.7317867-18.0572739,18.5966282-20.806675C59.8616104-2.5003009,72.4040833,6.3435321,75.347847,18.783556
			c1.1249695,0,2.2952728-0.1108589,3.4388046,0.0175514c9.1873779,1.0315914,15.7034836,5.8653526,19.33535,14.3631344
			c4.4878159,10.500042,0.6752701,22.8665733-8.6961746,29.0175095C85.5304718,64.7384262,79.3800125,65.9894714,74.7449188,66"/>
		<path id="Fill-3" class="st1" d="M69.4665527,65.9567719c0,0-11.1090584,0.0830383-20.2513123,0.0189362
			c-9.6153526-0.0674133-17.3729515-6.2809143-19.7688961-14.7277794
			c-2.0806198-7.3346329-0.4108543-13.9057236,4.5879955-19.6191692c3.1805077-3.6350918,7.1260376-5.9650688,11.8992996-6.7937412
			c8.0475922-1.3970509,16.1476631,2.2217312,20.4824677,9.1717415c2.7983932,4.4864616,3.8471603,9.3648491,3.0964508,14.6207848
			c-0.0470276,0.3291893-0.1231308,0.503479-0.5104752,0.5027924c-6.4931183-0.0108337-12.9861221-0.0079842-19.479126-0.0098076
			c-0.0914421,0-0.182766-0.0198479-0.3228226-0.036274c-0.0111313-0.1965294-0.0303307-0.3796043-0.0305557-0.5627899
			c-0.0020447-2.0149345-0.0023842-4.0299797-0.0007973-6.0449142c0.0006828-0.8178368,0.0893974-0.9031563,0.9168968-0.9031563
			c3.653492-0.0002289,7.3069878-0.0001144,10.9604836-0.0001144c0.2253609,0,0.4507217,0,0.7683182,0
			c-0.1032524-0.3237114-0.166069-0.5929031-0.272049-0.8436127c-1.9220467-4.5511398-5.3039474-7.3803711-10.1432037-8.1917076
			c-4.8517494-0.8133869-9.0882988,0.6324844-12.2753944,4.4473419c-4.9013901,5.8666344-3.366909,15.2100372,3.0662346,19.4321022
			c2.2157936,1.4541969,4.6380882,2.1764488,7.2893829,2.1738243c9.0486565-0.0092392,19.9689293-0.0020523,19.9689293-0.0020523
			L69.4665527,65.9567719"/>
		<path id="Fill-4" class="st1" d="M24.965332,56.8131409c1.5070324,1.9332199,2.973793,3.8148918,4.431345,5.6846695
			c-6.1225414,3.9074478-16.4436722,4.0593643-23.6402397-3.335804c-7.2644634-7.4650688-7.7168837-19.4486427-0.9951472-27.5115185
			c6.8165927-8.1766148,17.648941-8.7778206,24.6504726-4.4670773c-1.4568863,1.8649063-2.9218712,3.7400093-4.4461002,5.6911278
			c-3.4616032-1.5221062-7.0868454-1.5741043-10.6723709,0.1494217c-2.4104309,1.1586876-4.2722549,2.9534683-5.5917959,5.3181915
			c-2.7322721,4.896656-2.1207614,10.9662743,1.5272236,15.1944313
			C13.696537,57.5561829,19.5002308,59.2806129,24.965332,56.8131409"/>
	</g>
</g>
</svg>
