<?xml version="1.0" encoding="utf-8"?>
<!-- Generator: Adobe Illustrator 21.1.0, SVG Export Plug-In . SVG Version: 6.00 Build 0)  -->
<svg version="1.1" id="Layer_1" xmlns="http://www.w3.org/2000/svg" xmlns:xlink="http://www.w3.org/1999/xlink" x="0px" y="0px"
	 viewBox="0 0 451 87" style="enable-background:new 0 0 451 87;" xml:space="preserve">
<style type="text/css">
	.st0{fill:#4DCEF3;}
</style>
<g id="cloudevents-transparent-horizontal">
	<g id="text" transform="translate(154.000000, 42.000000)">
		<path id="cloudevents" d="M9.7147255,18.1797142l2.7851839,4.0770321c-2.1424494,1.8239365-5.2489986,2.843195-8.6233559,2.843195
			c-7.8199368,0-13.8723545-5.6863861-13.8723545-14.2159681c0-7.9394855,6.105978-14.2159691,14.0865993-14.2159691
			c3.1065497,0,5.8381729,0.9119675,8.141304,2.5749679L9.5540438,3.5882297
			c-1.553277-1.1801932-3.4814796-1.9312252-5.4632444-1.9312252c-4.7133875,0-8.4626713,4.1306772-8.4626713,9.2269688
			c0,5.5254507,3.9635298,9.2269697,8.4626713,9.2269697C5.91188,20.1109428,8.2150135,19.3599072,9.7147255,18.1797142z
			 M24.2083912-15.7776747v40.2338753h-5.5168056v-40.2338753H24.2083912z M45.1829605-3.331996
			c7.9806213,0,13.9259186,6.2764835,13.9259186,14.2159691s-5.9452972,14.2159681-13.9259186,14.2159681
			c-8.0341797,0-13.9259167-6.2764854-13.9259167-14.2159681S37.1487808-3.331996,45.1829605-3.331996z M53.484951,10.8839731
			c0-5.0962915-3.4814796-9.2269688-8.3019905-9.2269688s-8.3019867,4.1306772-8.3019867,9.2269688
			c0,5.0426455,3.4814796,9.2269697,8.3019867,9.2269697S53.484951,15.9266186,53.484951,10.8839731z M90.2065125,24.4561996
			h-5.2489853l-0.1606903-4.2916126c-2.0353317,3.1650658-5.3025665,4.9353542-8.7840424,4.9353542
			c-3.5886002,0-6.1059799-1.2874832-7.7128143-3.4332886c-1.8746414-2.5749683-2.4102554-6.1691952-2.4102554-10.2462282
			V-2.6882544h5.5168076v13.6258717c0,2.467679,0.1071243,5.2035818,1.2854614,7.0811625
			c0.8034286,1.2874851,2.2495804,2.0921631,4.4455872,2.0921631c2.8923035,0,5.7846146-1.9848728,7.5521317-4.8280659V-2.6882544
			h5.5167999V24.4561996z M124.5713959-15.7776747v40.2338753h-5.2490082l-0.160675-3.5942249
			c-1.9282074,2.8431911-5.4632492,4.2379665-8.6233597,4.2379665c-7.659256,0-13.2831802-6.3301277-13.2831802-14.2696142
			c0-7.2957416,5.3561249-14.162323,13.3903122-14.162323c3.0529785,0,6.266655,1.2874835,8.4091034,3.5405805v-15.9862595
			H124.5713959z M119.0545883,5.573101c-1.8210831-2.5749669-4.8205109-3.9160967-7.4985657-3.9160967
			c-5.8917389,0-8.6769257,4.8280649-8.6769257,9.2806129c0,4.8280649,3.2672424,9.1733255,8.5698013,9.1733255
			c2.7851791,0,6.2130966-1.6093578,7.60569-4.8280659V5.573101z M137.1904144,12.2787476
			c0.374939,4.4525471,3.3743591,8.1540661,8.1948547,8.1540661c3.5886078,0,6.2131042-1.3411293,7.8735046-4.2916145
			l3.8564148,2.5213242c-2.7851868,4.398901-6.4273529,6.437418-11.9977112,6.437418
			c-8.5162354,0-13.4974213-6.1691952-13.4974213-14.162324c0-8.10042,5.8917389-14.2696133,13.4974213-14.2696133
			c7.2843323,0,12.5868835,5.3645163,12.5868835,12.6066132c0,0.9656143-0.107132,2.1994514-0.267807,3.0041304H137.1904144z
			 M151.9732971,8.0407801c-0.2142334-3.7015185-2.9458618-6.7592916-6.748703-6.7592916
			c-4.1777802,0-6.7487183,2.9504828-7.7127991,6.7592916H151.9732971z M180.607132-2.6882544h5.9452972l-10.7122498,27.144455
			h-4.7133789l-10.2837677-27.144455h6.1059875l6.8022766,20.1169357h0.1071167L180.607132-2.6882544z M195.1543579,12.2787476
			c0.374939,4.4525471,3.3743591,8.1540661,8.1948547,8.1540661c3.5886078,0,6.2131195-1.3411293,7.8735046-4.2916145
			l3.8564148,2.5213242c-2.7851868,4.398901-6.4273529,6.437418-11.9977112,6.437418
			c-8.5162354,0-13.4974365-6.1691952-13.4974365-14.162324c0-8.10042,5.8917542-14.2696133,13.4974365-14.2696133
			c7.2843323,0,12.5868835,5.3645163,12.5868835,12.6066132c0,0.9656143-0.107132,2.1994514-0.267807,3.0041304H195.1543579z
			 M209.9372559,8.0407801c-0.2142487-3.7015185-2.9458618-6.7592916-6.7487183-6.7592916
			c-4.1777802,0-6.7487183,2.9504828-7.7127991,6.7592916H209.9372559z M222.7169647-2.6882544h5.2489929l0.160675,4.2916136
			c2.0353394-3.1650646,5.3025665-4.9353552,8.7840576-4.9353552c3.5885925,0,6.1059723,1.2874835,7.7127991,3.4332902
			c1.874649,2.5749691,2.4102631,6.1691947,2.4102631,10.2462273v14.1086779h-5.5167999V10.830327
			c0-2.4676762-0.107132-5.2035799-1.2854767-7.081161c-0.8034058-1.2874832-2.2495728-2.0921617-4.4455719-2.0921617
			c-2.8923035,0-5.7846069,1.9848713-7.5521393,4.8280649v17.9711304h-5.5167999V-2.6882544z M269.2402344,2.0861657h-7.4450073
			v11.8019361c0,0.6973877,0,1.3411293,0.0535583,2.1458073c0.160675,2.5749664,1.0176697,4.077034,3.4279175,4.077034
			c1.1783447,0,2.1960144-0.3218727,3.0529785-0.7510357l1.606842,4.3452587
			c-1.446167,0.804678-3.5350342,1.2874832-5.409668,1.2874832c-3.9099731,0-6.3737793-1.8239326-7.4450073-4.6134815
			c-0.5891724-1.5020638-0.8034363-3.3796463-0.8034363-5.3645172V2.0861657h-3.5350342v-4.7744198h3.5350342l0.2678223-6.3837738
			h5.2489929v6.3837738h7.4450073V2.0861657z M292.3572388-0.2205766l-3.2136536,3.4869354
			c-1.2319031-1.1265471-3.4279175-2.0921607-5.3561401-2.0921607c-2.1959839,0-3.6957092,1.2874846-3.6957092,3.2187095
			c0,1.9848714,2.4638062,2.9504843,4.9812012,3.9697433C288.6079712,9.7574244,293,11.6886492,293,16.5167141
			c0,6.0619049-4.8205261,8.5832272-9.9624023,8.5832272c-3.8564148,0-7.391449-1.5020638-9.7481384-4.3452587l3.6421509-3.1650639
			c1.8746643,1.9312267,3.7492981,2.9504852,6.0524292,2.9504852c2.3566895,0,4.4991455-1.1801968,4.4991455-3.701519
			c0-2.0921593-2.4638062-3.0577736-5.1418762-4.1306763c-3.5350342-1.4484205-7.552124-3.0577745-7.552124-7.8858395
			c0-5.5254521,4.3384399-8.1540651,8.9982605-8.1540651C287.0011292-3.331996,290.107666-2.259093,292.3572388-0.2205766z"/>
	</g>
	<g id="icon" transform="translate(33.000000, 24.000000)">
		<path id="Fill-1" class="st0" d="M56.9820595,48.5712509c8.7195702,0.0003929,18.193325-5.7479172,20.3228493-14.2785759
			c2.4452209-9.7957878-3.2854996-19.8906574-12.8996658-22.710331c-1.8394928-0.5394545-3.7283783-0.7149658-5.6386681-0.711833
			c-2.8079872,0.0045671-5.6158447,0.001173-8.4996796,0.001173c0.1961555-7.1805906-2.3350258-13.107542-8.0084419-17.5206566
			c-3.6174011-2.8139319-7.7821922-4.1305976-12.3402176-3.9837937c-5.1637554,0.1661158-9.6228523,2.1194534-13.2857647,5.7977653
			c-3.6531897,3.6686559-5.5601006,8.1565418-5.9056196,13.219635C8.0688667,7.4658384,5.4675417,6.5664864,2.8251166,5.6531725
			c0.7038765-8.7385359,7.7575603-20.8087959,21.4303379-23.9771461
			c15.5961533-3.6142406,30.0498161,6.5771942,33.4421425,20.9127998c1.2963905,0,2.6450233-0.1277514,3.9628029,0.0202258
			c10.587326,1.1887829,18.096344,6.7591014,22.2816238,16.551754c5.1716614,12.1000137,0.7781677,26.3509274-10.0212784,33.4391327
			C69.4318314,55.5461922,62.3441772,56.9878654,57.0028,57"/>
		<path id="Fill-3" class="st0" d="M50.9201279,56.9501839c0,0-12.8018303,0.0956917-23.3371601,0.0218239
			C16.5024509,56.8943214,7.5627675,49.7340202,4.8017344,40.000042
			c-2.3976595-8.4522667-0.4734592-16.0246429,5.2871032-22.6086903c3.6651459-4.1889992,8.2118864-6.874012,13.7124872-7.8289557
			c9.2738667-1.60993,18.6082058,2.5602732,23.6035366,10.5693102c3.2248077,5.1700974,4.4333839,10.7918415,3.5682831,16.8486633
			c-0.0541954,0.3793526-0.1418953,0.5802002-0.5882607,0.5794067c-7.4825249-0.0124817-14.9649162-0.009201-22.4473095-0.0112991
			c-0.1053772,0-0.2106171-0.0228729-0.372015-0.0418015c-0.0128269-0.2264786-0.0349522-0.4374504-0.0352116-0.6485481
			c-0.0023556-2.3219643-0.0027466-4.6440582-0.0009174-6.9660244c0.0007858-0.9424553,0.1030197-1.0407772,1.0566101-1.0407772
			c4.2102013-0.0002632,8.4204102-0.0001316,12.6306152-0.0001316c0.2597008,0,0.5194016,0,0.8853951,0
			c-0.118988-0.3730373-0.1913757-0.6832485-0.3135033-0.9721603c-2.2149239-5.2446308-6.1121521-8.5049744-11.6888027-9.4399395
			c-5.5910473-0.9373302-10.4731522,0.7288609-14.1458893,5.1250172
			c-5.6482525,6.7605782-3.8799505,17.5277042,3.5334606,22.3931179c2.5534306,1.6757851,5.3448296,2.508091,8.4001217,2.5050697
			c10.4274693-0.0106506,23.0117474-0.0023651,23.0117474-0.0023651L50.9201279,56.9501839"/>
		<path id="Fill-4" class="st0" d="M-0.3620838,46.413269c1.7366705,2.2277985,3.4269326,4.3961945,5.1065831,6.5508842
			c-7.05548,4.5028572-18.9493179,4.6779213-27.2424831-3.8441048c-8.3714046-8.6025772-8.8927631-22.4121799-1.1467838-31.7036572
			C-15.7894793,7.9938431-3.3065233,7.3010268,4.7618852,12.268631c-1.6788833,2.1490765-3.367099,4.3099022-5.1235867,6.5583286
			c-3.989074-1.7540417-8.1667223-1.8139629-12.2986021,0.1721897c-2.7777262,1.3352451-4.9232502,3.403511-6.443861,6.1285648
			c-3.1486092,5.6427975-2.4439163,12.637289,1.7599392,17.5097218C-13.347991,47.2695351-6.6599441,49.2567291-0.3620838,46.413269
			"/>
	</g>
</g>
</svg>
