<svg id="Layer_1" data-name="Layer 1" xmlns="http://www.w3.org/2000/svg" viewBox="0 0 487.47563 315.06593"><defs><style>.cls-1{fill:#fff;}</style></defs><title>cloudevents-stacked-white</title><g id="cloudevents-transparent"><g id="text"><path id="cloudevents" class="cls-1" d="M38.81393,315.27153l4.481,6.55934c-3.44689,2.93445-8.44487,4.57428-13.87371,4.57428-12.58113,0-22.31858-9.14856-22.31858-22.8714a22.47654,22.47654,0,0,1,22.66326-22.8714A21.93217,21.93217,0,0,1,42.864,284.8051l-4.3086,6.99088a14.72063,14.72063,0,0,0-8.78956-3.10706c-7.58315,0-13.61519,6.64565-13.61519,14.84483,0,8.88964,6.37674,14.84483,13.61519,14.84483A15.90188,15.90188,0,0,0,38.81393,315.27153ZM62.1321,260.63909v64.73038H53.25637V260.63909Zm33.745,20.02326c12.83965,0,22.40475,10.09794,22.40475,22.8714s-9.56511,22.8714-22.40475,22.8714c-12.92581,0-22.40475-10.09794-22.40475-22.8714S82.95128,280.66235,95.87709,280.66235Zm13.35668,22.8714c0-8.19918-5.60119-14.84483-13.35668-14.84483s-13.35667,6.64565-13.35667,14.84483c0,8.11287,5.60119,14.84483,13.35667,14.84483S109.23377,311.64663,109.23377,303.53375Zm59.07959,21.83571h-8.44486l-.25853-6.90457a16.73931,16.73931,0,0,1-14.13223,7.94026c-5.77353,0-9.82362-2.07137-12.40878-5.52366-3.016-4.14275-3.87775-9.92533-3.87775-16.48467V281.698H138.067v21.922c0,3.97013.17234,8.3718,2.06812,11.39255,1.29259,2.07137,3.61924,3.366,7.15229,3.366,4.65329,0,9.30659-3.19337,12.15027-7.76765V281.698h8.87573Zm55.288-64.73038v64.73038h-8.44487l-.25851-5.78258c-3.1022,4.57428-8.78955,6.81827-13.87371,6.81827-12.32261,0-21.37067-10.18425-21.37067-22.95771,0-11.73777,8.61721-22.78509,21.543-22.78509a19.10624,19.10624,0,0,1,13.529,5.69627V260.63909Zm-8.87573,34.35025a15.11433,15.11433,0,0,0-12.06409-6.30042c-9.47894,0-13.95988,7.76765-13.95988,14.93114,0,7.76765,5.2565,14.75853,13.78754,14.75853,4.48095,0,9.996-2.58922,12.23644-7.76765Zm29.17786,10.7884c.60323,7.16349,5.42886,13.11869,13.18433,13.11869,5.77354,0,9.996-2.15768,12.66731-6.90457l6.2044,4.05644c-4.48095,7.07719-10.34066,10.35686-19.30256,10.35686-13.70136,0-21.71536-9.92533-21.71536-22.78509,0-13.03238,9.47894-22.95771,21.71536-22.95771,11.71942,0,20.25047,8.63072,20.25047,20.28218a27.99786,27.99786,0,0,1-.43088,4.8332Zm23.7835-6.81827c-.34468-5.9552-4.73946-10.8747-10.85769-10.8747-6.72142,0-10.85769,4.74689-12.40876,10.8747ZM313.75465,281.698h9.56509l-17.23442,43.67143h-7.58313L281.95713,281.698h9.82363l10.94386,32.36519h.17234Zm23.40434,24.0797c.60323,7.16349,5.42886,13.11869,13.18433,13.11869,5.77354,0,9.996-2.15768,12.66731-6.90457l6.2044,4.05644c-4.48095,7.07719-10.34066,10.35686-19.30256,10.35686-13.70136,0-21.71537-9.92533-21.71537-22.78509,0-13.03238,9.479-22.95771,21.71537-22.95771,11.71942,0,20.25044,8.63072,20.25044,20.28218a27.998,27.998,0,0,1-.43085,4.8332Zm23.7835-6.81827c-.34468-5.9552-4.73946-10.8747-10.85769-10.8747-6.72142,0-10.85769,4.74689-12.40876,10.8747ZM381.50315,281.698H389.948l.25851,6.90457a16.73934,16.73934,0,0,1,14.13224-7.94026c5.77351,0,9.82361,2.07137,12.40876,5.52366,3.016,4.14275,3.87775,9.92533,3.87775,16.48467v22.69879h-8.87573v-21.922c0-3.97013-.17234-8.37179-2.06813-11.39255-1.29256-2.07137-3.61924-3.366-7.15228-3.366-4.65329,0-9.30658,3.19337-12.15028,7.76765v28.9129h-8.87573Zm74.8491,7.68134H444.37434V308.367c0,1.122,0,2.15768.08617,3.45229.25851,4.14274,1.63725,6.55935,5.515,6.55935a10.86433,10.86433,0,0,0,4.9118-1.2083l2.58519,6.99088a19.0498,19.0498,0,0,1-8.70338,2.07137c-6.29057,0-10.25449-2.93444-11.97794-7.42241a24.24918,24.24918,0,0,1-1.29259-8.63072v-20.8h-5.68734V281.698h5.68734l.43088-10.27055h8.44487V281.698h11.97791Zm37.19186-3.71121-5.17032,5.61a13.99266,13.99266,0,0,0-8.61721-3.366c-3.533,0-5.94585,2.07137-5.94585,5.17843,0,3.19337,3.96389,4.74689,8.014,6.38673,5.68734,2.244,12.75348,5.351,12.75348,13.11869,0,9.75271-7.7555,13.80915-16.028,13.80915a20.00886,20.00886,0,0,1-15.68332-6.99088l5.85968-5.09212c3.016,3.10706,6.03205,4.74689,9.73746,4.74689,3.79158,0,7.23848-1.89876,7.23848-5.9552,0-3.366-3.96392-4.91951-8.27256-6.64565-5.68734-2.33029-12.15025-4.91951-12.15025-12.68715,0-8.88964,6.97994-13.11869,14.4769-13.11869A20.52657,20.52657,0,0,1,493.54411,285.66817Z" transform="translate(-7.10259 -11.33922)"/></g><g id="icon"><path id="Fill-1" class="cls-1" d="M323.26142,182.7876c22.12915.001,46.17233-14.57189,51.5768-36.19851,6.20567-24.8339-8.33819-50.426-32.73771-57.57436a50.24966,50.24966,0,0,0-14.31021-1.80461c-7.12632.01158-14.2523.003-21.57111.003.49783-18.204-5.926-33.22974-20.32439-44.4177a47.30227,47.30227,0,0,0-31.31789-10.09956A48.38322,48.38322,0,0,0,220.85935,47.3941,51.04326,51.04326,0,0,0,205.87164,80.908c-6.74562-2.32929-13.34744-4.60929-20.05358-6.92469,1.78635-22.15361,19.68769-52.75367,54.38745-60.78595,39.581-9.16269,76.26259,16.67425,84.87188,53.01733a90.00929,90.00929,0,0,1,10.05707.05128c26.86928,3.01376,45.92622,17.13542,56.54792,41.96138,13.125,30.67549,1.97489,66.80386-25.43272,84.77361-11.39231,7.46922-29.37985,11.12411-42.93557,11.15487" transform="translate(-7.10259 -11.33922)"/><path id="Fill-3" class="cls-1" d="M307.359,204.0302s-32.51267.24134-59.26913.055c-28.14107-.19594-50.84509-18.25583-57.85725-42.80715-6.08931-21.31854-1.20243-40.41779,13.4276-57.02425a59.08239,59.08239,0,0,1,94.77109,6.91179,61.22443,61.22443,0,0,1,9.06233,42.49617c-.13763.95679-.36036,1.46338-1.494,1.46138q-28.50492-.04723-57.0092-.0285a9.39309,9.39309,0,0,1-.9448-.10544c-.03258-.57123-.08876-1.10333-.08942-1.63578q-.009-8.78477-.00232-17.5699c.002-2.37709.26162-2.62507,2.68345-2.62507q16.03892-.001,32.07783-.00033h2.24864c-.30219-.94089-.486-1.72331-.79619-2.452-5.62523-13.22815-15.523-21.45148-29.68593-23.80968-14.19951-2.36416-26.59855,1.83835-35.92616,12.92645-14.3448,17.05171-9.85386,44.20887,8.97389,56.48055a38.14653,38.14653,0,0,0,21.3337,6.31835c26.48253-.02686,58.44267-.006,58.44267-.006l.0532,21.41435" transform="translate(-7.10259 -11.33922)"/><path id="Fill-4" class="cls-1" d="M178.20662,177.93476c4.46489,5.64784,8.81046,11.14507,13.12876,16.60756-18.13926,11.41546-48.71769,11.85928-70.039-9.74544a59.76681,59.76681,0,0,1-2.94832-80.3739c20.19553-23.88768,52.28854-25.64409,73.032-13.05041-4.31632,5.44826-8.65663,10.9263-13.17247,16.62643a37.66268,37.66268,0,0,0-48.18587,15.97344,38.4857,38.4857,0,0,0,4.52471,44.39,37.355,37.355,0,0,0,43.66018,9.57235" transform="translate(-7.10259 -11.33922)"/></g></g></svg>