<svg id="Layer_1" data-name="Layer 1" xmlns="http://www.w3.org/2000/svg" viewBox="0 0 360 360"><defs><style>.cls-1{fill:#fff;}</style></defs><title>cloudevents-icon-white</title><g id="cloudevents-transparent-icon"><g id="icon"><path id="Fill-1" class="cls-1" d="M267.24588,267.3413c26.5724.00119,55.44313-17.49774,61.93274-43.46669,7.45169-29.82022-10.01239-60.55092-39.311-69.13454a60.33912,60.33912,0,0,0-17.18351-2.167c-8.55719.0139-17.114.00357-25.9023.00357.59779-21.85907-7.11586-39.90183-24.40526-53.33619a56.79994,56.79994,0,0,0-37.60611-12.12742,58.09793,58.09793,0,0,0-40.48761,17.64949c-11.13288,11.16808-16.94409,24.83005-17.997,40.24306-8.1-2.797-16.02743-5.53478-24.08008-8.31508,2.145-26.60176,23.64072-63.34591,65.30773-72.991,47.52839-11.00243,91.57511,20.02222,101.913,63.66251,3.95066,0,8.06055-.3889,12.07639.06158,32.26428,3.61888,55.1476,20.576,67.902,50.38667,15.76034,36.83472,2.37142,80.2172-30.53927,101.795C305.18583,288.57432,283.58663,292.96306,267.3091,293"/><path id="Fill-3" class="cls-1" d="M248.15051,292.84914s-39.04079.2898-71.16959.06607c-33.79143-.23528-61.05411-21.92136-69.47422-51.40226-7.312-25.599-1.44387-48.53315,16.12369-68.474,11.17732-12.68705,25.04318-20.819,41.81793-23.71123a70.792,70.792,0,0,1,71.98194,32.01082,73.51749,73.51749,0,0,1,10.88192,51.02885c-.16526,1.1489-.43271,1.75721-1.794,1.75481q-34.22833-.05671-68.45589-.03422a11.2791,11.2791,0,0,1-1.1345-.12661c-.03912-.68592-.10658-1.32487-.10738-1.96422q-.01078-10.54864-.00279-21.0977c.00239-2.85437.31416-3.15216,3.22225-3.15216q19.25933-.0012,38.51864-.00039h2.70013c-.36287-1.12981-.58362-2.06932-.95606-2.94434-6.7547-15.88419-18.63978-25.75866-35.64648-28.59035-17.05059-2.83885-31.93918,2.20746-43.13966,15.52192-17.225,20.47546-11.83239,53.08542,10.77573,67.8211a45.80585,45.80585,0,0,0,25.61722,7.587c31.79987-.03225,70.17719-.00717,70.17719-.00717l.06388,25.71407"/><path id="Fill-4" class="cls-1" d="M93.066,261.51408c5.36138,6.78185,10.57948,13.38285,15.76484,19.94214-21.78139,13.70754-58.49956,14.24046-84.10187-11.7022a71.7672,71.7672,0,0,1-3.54031-96.51192c24.25052-28.684,62.78739-30.79308,87.69585-15.67076-5.183,6.5422-10.39477,13.12016-15.81733,19.96479-12.3149-5.33963-25.212-5.522-37.96774.52418a44.264,44.264,0,0,0-19.89322,18.65651,46.21312,46.21312,0,0,0,5.43321,53.3029A44.85538,44.85538,0,0,0,93.066,261.51408"/></g></g></svg>